<?xml version="1.0" encoding="UTF-8"?>
<svg width="96px" height="63px" viewBox="0 0 96 63" version="1.1" xmlns="http://www.w3.org/2000/svg" xmlns:xlink="http://www.w3.org/1999/xlink">
    <!-- Generator: Sketch 52.3 (67297) - http://www.bohemiancoding.com/sketch -->
    <title>logo_calderamedia copy</title>
    <desc>Created with Sketch.</desc>
    <defs>
        <linearGradient x1="3.36488878%" y1="24.4572914%" x2="97.8621893%" y2="83.4824252%" id="linearGradient-1">
            <stop stop-color="#EF6E4B" offset="0%"></stop>
            <stop stop-color="#AE2E89" offset="100%"></stop>
        </linearGradient>
        <path d="M14.93,38.228 C12.9539901,38.228 11.2566738,37.5535067 9.838,36.2045 C8.41932624,34.8554933 7.71,33.1898432 7.71,31.2075 C7.71,29.2251568 8.33066046,27.5595067 9.572,26.2105 C10.8133395,24.8614933 12.4029903,24.187 14.341,24.187 C15.8610076,24.187 17.3999922,24.4403308 18.958,24.947 L18.711,25.707 C17.1909924,25.2509977 15.7343403,25.023 14.341,25.023 C12.6816584,25.023 11.3263386,25.6183274 10.275,26.809 C9.22366141,27.9996726 8.698,29.4563247 8.698,31.179 C8.698,32.9016753 9.30916056,34.3678273 10.5315,35.5775 C11.7538394,36.7871727 13.2199915,37.392 14.93,37.392 C16.4246741,37.392 17.7166612,37.1640023 18.806,36.708 L19.091,37.354 C18.6096643,37.6326681 17.9795039,37.8479992 17.2005,38 C16.4214961,38.1520008 15.6646703,38.228 14.93,38.228 Z M23.5900085,33.725 L21.8230085,38 L20.9300085,38 L26.0980085,25.593 L26.6110085,25.593 L31.8170085,38 L30.8480085,38 L29.0620085,33.725 L23.5900085,33.725 Z M26.3070085,26.999 C26.1170075,27.5690029 25.9460092,28.0439981 25.7940085,28.424 L23.8940085,32.984 L28.7580085,32.984 L26.8770085,28.443 C26.5856737,27.7336631 26.3956756,27.2523346 26.3070085,26.999 Z M34.8720169,38 L34.8720169,25.669 L35.7460169,25.669 L35.7460169,37.202 L41.4080169,37.202 L41.4080169,38 L34.8720169,38 Z M48.4910254,37.354 C50.1123668,37.354 51.4138538,36.9170044 52.3955254,36.043 C53.3771969,35.1689956 53.8680254,33.8516755 53.8680254,32.091 C53.8680254,30.3303245 53.3138642,28.9306719 52.2055254,27.892 C51.0971865,26.8533281 49.7323668,26.334 48.1110254,26.334 C46.9583529,26.334 46.0716951,26.3593331 45.4510254,26.41 L45.4510254,37.221 C46.2110292,37.3096671 47.2243524,37.354 48.4910254,37.354 Z M48.1110254,25.555 C50.0110349,25.555 51.597519,26.1408275 52.8705254,27.3125 C54.1435317,28.4841725 54.7800254,30.0769899 54.7800254,32.091 C54.7800254,34.1050101 54.1941979,35.6186616 53.0225254,36.632 C51.8508528,37.6453384 50.3403679,38.152 48.4910254,38.152 C47.2116856,38.152 45.8943655,38.0886673 44.5390254,37.962 L44.5390254,25.669 C45.5523638,25.5929996 46.7430185,25.555 48.1110254,25.555 Z M59.1270338,38 L59.1270338,25.669 L64.8840338,25.669 L64.8840338,26.429 L60.0010338,26.429 L60.0010338,30.913 L64.4090338,30.913 L64.4090338,31.654 L60.0010338,31.654 L60.0010338,37.202 L65.0740338,37.202 L65.0740338,38 L59.1270338,38 Z M69.1170423,38 L69.1170423,25.726 C70.2063811,25.6373329 71.1310385,25.593 71.8910423,25.593 C73.0563814,25.593 74.0190385,25.8938303 74.7790423,26.4955 C75.5390461,27.0971697 75.9190423,27.9553278 75.9190423,29.07 C75.9190423,29.8173371 75.7037111,30.5076635 75.2730423,31.141 C74.8423735,31.7743365 74.3547117,32.2873314 73.8100423,32.68 C75.3173831,34.6813433 76.2483738,35.8783314 76.6030423,36.271 C77.3250459,37.0183371 78.1103714,37.4426662 78.9590423,37.544 L78.9400423,38.133 C78.2307054,38.1203333 77.6543778,38.0158343 77.2110423,37.8195 C76.7677067,37.6231657 76.3275445,37.290669 75.8905423,36.822 C75.4535401,36.353331 74.4940497,35.0930103 73.0120423,33.041 C71.9860371,33.041 70.9790472,33.0093337 69.9910423,32.946 L69.9910423,38 L69.1170423,38 Z M72.5370423,32.319 C73.0310447,32.319 73.5630394,31.98967 74.1330423,31.331 C74.7030451,30.67233 74.9880423,29.9060044 74.9880423,29.032 C74.9880423,28.1579956 74.6903786,27.4930023 74.0950423,27.037 C73.499706,26.5809977 72.727047,26.353 71.7770423,26.353 C71.2703731,26.353 70.6750457,26.3783331 69.9910423,26.429 L69.9910423,32.224 C70.9030468,32.2873337 71.751705,32.319 72.5370423,32.319 Z M82.2800507,33.725 L80.5130507,38 L79.6200507,38 L84.7880507,25.593 L85.3010507,25.593 L90.5070507,38 L89.5380507,38 L87.7520507,33.725 L82.2800507,33.725 Z M84.9970507,26.999 C84.8070498,27.5690029 84.6360515,28.0439981 84.4840507,28.424 L82.5840507,32.984 L87.4480507,32.984 L85.5670507,28.443 C85.2757159,27.7336631 85.0857178,27.2523346 84.9970507,26.999 Z" id="path-2"></path>
        <path d="M14.57,60.853 L13.733,60.853 L7.254,45.167 C6.88199814,44.2989957 6.58233447,43.5343366 6.355,42.873 L6.045,45.229 L3.503,62 L1.984,62 L5.642,39.649 L6.51,39.649 L13.423,56.079 C13.7743351,56.8436705 14.0533323,57.5669966 14.26,58.249 C14.3220003,58.0216655 14.6423304,57.3086727 15.221,56.11 L22.94,39.649 L23.777,39.649 L27.156,62 L25.606,62 L23.188,45.167 C23.0226658,44.1129947 22.94,43.317336 22.94,42.78 C22.9193332,42.8006668 22.8728337,42.8988325 22.8005,43.0745 C22.7281663,43.2501675 22.6041675,43.539498 22.4285,43.9425 C22.2528325,44.345502 22.0720009,44.7639978 21.886,45.198 L14.57,60.853 Z M33.6409268,62 L33.6409268,41.881 L43.0339268,41.881 L43.0339268,43.121 L35.0669268,43.121 L35.0669268,50.437 L42.2589268,50.437 L42.2589268,51.646 L35.0669268,51.646 L35.0669268,60.698 L43.3439268,60.698 L43.3439268,62 L33.6409268,62 Z M56.2768535,60.946 C58.9222001,60.946 61.0456789,60.2330071 62.6473535,58.807 C64.2490282,57.3809929 65.0498535,55.231681 65.0498535,52.359 C65.0498535,49.486319 64.1456959,47.2026751 62.3373535,45.508 C60.5290112,43.8133249 58.3022001,42.966 55.6568535,42.966 C53.7761775,42.966 52.3295253,43.0073329 51.3168535,43.09 L51.3168535,60.729 C52.5568597,60.8736674 54.2101765,60.946 56.2768535,60.946 Z M55.6568535,41.695 C58.756869,41.695 61.3453431,42.6508238 63.4223535,44.5625 C65.4993639,46.4741762 66.5378535,49.0729836 66.5378535,52.359 C66.5378535,55.6450164 65.5820298,58.1146584 63.6703535,59.768 C61.7586773,61.4213416 59.2942019,62.248 56.2768535,62.248 C54.1895098,62.248 52.0401979,62.1446677 49.8288535,61.938 L49.8288535,41.881 C51.4821951,41.7569994 53.4248424,41.695 55.6568535,41.695 Z M73.5187803,62 L73.5187803,41.881 L74.9447803,41.881 L74.9447803,62 L73.5187803,62 Z M84.1577071,55.025 L81.2747071,62 L79.8177071,62 L88.2497071,41.757 L89.0867071,41.757 L97.5807071,62 L95.9997071,62 L93.0857071,55.025 L84.1577071,55.025 Z M88.5907071,44.051 C88.2807055,44.9810047 88.0017083,45.7559969 87.7537071,46.376 L84.6537071,53.816 L92.5897071,53.816 L89.5207071,46.407 C89.0453713,45.2496609 88.7353744,44.4643354 88.5907071,44.051 Z" id="path-3"></path>
        <linearGradient x1="0%" y1="0%" x2="100%" y2="100%" id="linearGradient-4">
            <stop stop-color="#EF6E4B" offset="0%"></stop>
            <stop stop-color="#AE2E89" offset="100%"></stop>
        </linearGradient>
    </defs>
    <g id="Page-1" stroke="none" stroke-width="1" fill="none" fill-rule="evenodd">
        <g id="logo_calderamedia-copy-2" transform="translate(-10.000000, -9.000000)">
            <g id="logo_calderamedia-copy" transform="translate(8.000000, 9.000000)">
                <g id="Caldera-Copy">
                    <use fill="#E3E3E3" xlink:href="#path-2"></use>
                    <use fill="url(#linearGradient-1)" xlink:href="#path-2"></use>
                </g>
                <g id="Media-Copy">
                    <use fill="#E3E3E3" xlink:href="#path-3"></use>
                    <use fill="url(#linearGradient-1)" xlink:href="#path-3"></use>
                </g>
                <path d="M85.6194947,19.0536924 L85.6194947,1.63176109 C85.6194947,1.07947634 85.1717794,0.631761086 84.6194947,0.631761086 C84.6191045,0.631761086 84.6187144,0.631761314 84.6183242,0.631761771 L65.612636,0.654006998 C65.0608086,0.654652885 64.6138064,1.1021786 64.6138064,1.65400631 L64.6138064,3.86730307 C64.6138064,4.41958782 65.0615217,4.86730307 65.6138064,4.86730307 L66.2866285,4.86730307 C66.8389133,4.86730307 67.2866285,5.31501832 67.2866285,5.86730307 L67.2866285,7.29276195 C67.2866285,7.8450467 66.8389133,8.29276195 66.2866285,8.29276195 L59.2153696,8.29276195 C58.6630848,8.29276195 58.2153696,7.8450467 58.2153696,7.29276195 L58.2153696,1.65517608 C58.2153696,1.10289133 57.7676543,0.655176079 57.2153696,0.655176079 L40.6413424,0.655176079 C40.0890576,0.655176079 39.6413424,1.10289133 39.6413424,1.65517608 L39.6413424,4.64267776 C39.6413424,5.19496251 39.1936271,5.64267776 38.6413424,5.64267776 L25.2688185,5.64267776 C24.7165338,5.64267776 24.2688185,5.19496251 24.2688185,4.64267776 L24.2688185,1.65517608 C24.2688185,1.10289133 23.8211033,0.655176079 23.2688185,0.655176079 L10.75,0.655176079 C10.1977153,0.655176079 9.75,1.10289133 9.75,1.65517608 L9.75,20.0536924" id="Path-4-Copy-4" stroke="url(#linearGradient-4)" stroke-linecap="round"></path>
            </g>
        </g>
    </g>
</svg>